# xmcd CD database file
#
# Track frame offsets:
#	150
#	13955
#	28720
#	47007
#	65425
#	77757
#	98130
#	116760
#	132585
#	152205
#	165805
#	183420
#
# Disc length: 2878 seconds
#
# Revision: 2
# Processed by: cddbd v1.4b42PL1 Copyright (c) Steve Scherf et al.
# Submitted via: CDex 1.40Beta5
#
DISCID=9a0b3c0c
DTITLE=Glen Moffat - Somewhere in New Zealand Tonight
DYEAR=1995
DGENRE=Country
TTITLE0=Somewhere in New Zealand Tonight
TTITLE1=You've Got To Take Love
TTITLE2=Truck Driver in His Head
TTITLE3=Slipping Away
TTITLE4=Bloodshot Eyes
TTITLE5=Up Country
TTITLE6=My Heart Ain't Broken
TTITLE7=Here Comes Friday
TTITLE8=(Ride You) Bastards of the Rodeo
TTITLE9=Like Father, Like Son
TTITLE10=Gypsy Woman
TTITLE11=Anzac Day
EXTD=YEAR: 1995 ID3G:   2
EXTT0=
EXTT1=
EXTT2=
EXTT3=
EXTT4=
EXTT5=
EXTT6=
EXTT7=
EXTT8=
EXTT9=
EXTT10=
EXTT11=
PLAYORDER=
